<?xml version="1.0" encoding="iso-8859-1"?>
<!-- Generator: Adobe Illustrator 19.0.0, SVG Export Plug-In . SVG Version: 6.00 Build 0)  -->
<svg version="1.1" id="Capa_1" xmlns="http://www.w3.org/2000/svg" xmlns:xlink="http://www.w3.org/1999/xlink" x="0px" y="0px"
	 viewBox="0 0 512 512" style="enable-background:new 0 0 512 512;" xml:space="preserve">
<g>
	<g>
		<path d="M95.997,0c-35.296,0-64,28.704-64,64s28.704,64,64,64s64-28.704,64-64S131.293,0,95.997,0z M95.997,96
			c-17.664,0-32-14.368-32-32s14.336-32,32-32s32,14.368,32,32S113.661,96,95.997,96z"/>
	</g>
</g>
<g>
	<g>
		<path d="M191.901,334.4l-14.56-145.568C175.709,172.384,162.013,160,145.533,160h-17.536c-4.256,0-8.32,1.696-11.328,4.672
			l-20.672,20.704l-20.672-20.704C72.317,161.696,68.253,160,63.997,160H46.461c-16.48,0-30.176,12.384-31.808,28.8L0.093,334.4
			c-0.48,4.512,0.992,8.992,4.032,12.32c3.04,3.36,7.328,5.28,11.872,5.28h17.536l13.12,131.168
			C48.285,499.616,61.981,512,78.461,512h35.072c16.512,0,30.176-12.384,31.808-28.8l13.12-131.2h17.536
			c4.544,0,8.832-1.92,11.872-5.28C190.909,343.392,192.381,338.88,191.901,334.4z M143.997,320c-8.224,0-15.104,6.24-15.904,14.4
			L113.533,480H78.461l-14.56-145.6c-0.8-8.16-7.68-14.4-15.904-14.4H33.693l12.768-128h10.912l27.328,27.328
			c6.24,6.24,16.384,6.24,22.624,0L134.621,192h10.912l12.768,128H143.997z"/>
	</g>
</g>
<g>
	<g>
		<path d="M495.997,192h-40.288c-5.824-16.672-14.656-32.096-26.048-45.472l20.064-34.88c2.112-3.68,2.688-8.032,1.568-12.128
			c-1.088-4.096-3.776-7.584-7.456-9.696l-55.68-32c-3.648-2.112-8.064-2.656-12.16-1.568c-4.096,1.12-7.552,3.808-9.696,7.488
			l-19.936,34.72c-17.056-3.264-35.616-3.264-52.672,0l-19.968-34.752c-2.144-3.68-5.6-6.368-9.696-7.488
			c-4.064-1.024-8.48-0.544-12.16,1.568l-55.68,32c-3.68,2.144-6.368,5.632-7.488,9.728c-1.12,4.096-0.544,8.48,1.568,12.128
			l20.096,34.976c-1.12,1.312-2.24,2.656-3.36,3.968c-5.728,6.752-4.928,16.832,1.792,22.56c6.816,5.728,16.864,4.896,22.56-1.824
			c3.264-3.84,6.496-7.648,10.016-11.2c5.12-5.12,6.144-13.024,2.56-19.296l-17.92-31.232l27.936-16.064l17.952,31.232
			c3.68,6.4,11.296,9.472,18.4,7.36c18.624-5.504,40.8-5.504,59.424,0c7.072,2.112,14.72-0.96,18.4-7.36l17.952-31.232
			l27.936,16.064l-17.984,31.232c-3.616,6.304-2.528,14.304,2.688,19.392c14.368,14.08,24.64,31.968,29.632,51.68
			c1.76,7.136,8.192,12.096,15.488,12.096h36.16v32h-36.16c-7.328,0-13.728,4.96-15.488,12.064
			c-4.992,19.744-15.264,37.6-29.632,51.68c-5.216,5.12-6.304,13.088-2.688,19.392l17.984,31.232l-27.936,16.064L368.125,355.2
			c-3.68-6.4-11.328-9.536-18.4-7.36c-18.624,5.504-40.8,5.504-59.424,0c-7.136-2.144-14.72,0.96-18.4,7.36l-17.952,31.264
			L225.853,370.4c-7.584-4.384-17.44-1.76-21.824,5.952c-4.416,7.68-1.76,17.44,5.952,21.856l41.952,24
			c2.464,1.44,5.184,2.112,7.904,2.112c5.536,0,10.912-2.88,13.888-8.032l19.936-34.72c17.056,3.264,35.616,3.264,52.672,0
			l19.936,34.72c2.112,3.68,5.6,6.368,9.696,7.488c4.128,1.088,8.512,0.544,12.16-1.568l55.68-32c3.68-2.112,6.368-5.6,7.456-9.696
			c1.12-4.096,0.576-8.48-1.568-12.128l-20.064-34.88c11.424-13.408,20.288-28.832,26.08-45.504h40.288c8.832,0,16-7.168,16-16v-64
			C511.997,199.168,504.829,192,495.997,192z"/>
	</g>
</g>
<g>
	<g>
		<path d="M319.997,176c-35.296,0-64,28.704-64,64s28.704,64,64,64c35.296,0,64-28.704,64-64
			C383.997,204.704,355.293,176,319.997,176z M319.997,272c-17.664,0-32-14.368-32-32c0-17.632,14.336-32,32-32s32,14.368,32,32
			S337.661,272,319.997,272z"/>
	</g>
</g>
<g>
</g>
<g>
</g>
<g>
</g>
<g>
</g>
<g>
</g>
<g>
</g>
<g>
</g>
<g>
</g>
<g>
</g>
<g>
</g>
<g>
</g>
<g>
</g>
<g>
</g>
<g>
</g>
<g>
</g>
</svg>
